<?xml version="1.0" encoding="UTF-8"?>
<svg version="1.1" xmlns="http://www.w3.org/2000/svg" width="1280" height="275">
<path d="M0 0 C1.18217638 0.93913413 2.35285029 1.89338835 3.5 2.875 C8.05668711 6.74818405 13.30043593 7.64756107 19 9 C20.2279493 12.66358842 19.87962289 15.75818507 19.4765625 19.5703125 C19.34121866 20.93514808 19.20665489 22.30006117 19.07275391 23.66503906 C18.99970032 24.38985474 18.92664673 25.11467041 18.85137939 25.8614502 C17.74231671 36.95088094 16.89870624 47.98492626 16.75 59.1328125 C16.73657562 60.06042389 16.72315125 60.98803528 16.70932007 61.9437561 C16.65111603 66.46989741 16.62663969 70.99355886 16.64306641 75.52001953 C16.57711567 92.94682541 12.36204171 106.19016872 0.125 119.1875 C-2 121 -2 121 -4 121 C0.56781024 125.82157748 3.75050872 127.92772529 10.25 129.125 C11.58804687 129.37636719 11.58804687 129.37636719 12.953125 129.6328125 C13.62859375 129.75398437 14.3040625 129.87515625 15 130 C16.3484677 134.42944868 15.37995219 138.2312078 14.5625 142.6875 C13.21870411 150.80771545 12.66398231 158.77102037 12.625 167 C12.61154541 168.01280029 12.59809082 169.02560059 12.58422852 170.0690918 C12.64512651 180.5855749 14.97602949 189.7893874 20 199 C20.33 199.99 20.66 200.98 21 202 C21.66 202 22.32 202 23 202 C23.515625 202.5775 24.03125 203.155 24.5625 203.75 C33.55654967 212.05219969 46.26305068 212.53890692 57.83203125 212.31640625 C73.64091152 211.61942739 86.77722416 204.95070855 98 194 C100.7393085 190.51922454 102.92153883 186.90597953 105 183 C105.46019531 182.15953125 105.92039062 181.3190625 106.39453125 180.453125 C114.00520306 165.2777673 116.99398811 146.42091005 112 130 C109.80534284 123.79023273 106.97394471 117.43970024 101.1484375 113.86328125 C97.18987816 112.27266013 93.18404771 112.46544501 89 113 C85.48343967 114.69548444 83.6541669 115.92954507 81.625 119.25 C80.58303037 123.83466639 80.14006443 128.08903206 82.125 132.5 C84.75380652 134.60304522 86.7250467 134.21358391 90 134 C91 135 91 135 91.5 137.1875 C90.71881735 141.58165243 87.5115634 143.48947051 84 146 C81.39080172 147.30459914 79.41057385 147.1326594 76.5 147.125 C75.5203125 147.12757813 74.540625 147.13015625 73.53125 147.1328125 C71 147 71 147 69 146 C67.76610509 168.17269899 67.76610509 168.17269899 77.671875 187.09765625 C79 189 79 189 78.828125 191.18359375 C78 193 78 193 76 194 C68.76248241 194.89551435 62.76010294 193.22990325 55.98046875 190.77734375 C52.73086365 189.92980585 51.1835127 190.06811733 48 191 C40.24388599 193.21603257 34.02148101 194.47297107 26 193 C25.25 190.875 25.25 190.875 25 188 C25.93889586 186.59165621 26.88634792 185.18799514 27.88354492 183.8203125 C32.62033277 176.09726631 32.50241059 166.39015247 32.44604492 157.63964844 C32.43753698 155.63371807 32.46640194 153.63065121 32.49804688 151.625 C32.49185939 139.0767794 30.2524946 128.90309639 22.29296875 119.0234375 C21.86628906 118.35570312 21.43960937 117.68796875 21 117 C21.33 116.01 21.66 115.02 22 114 C24.40545638 112.79727181 25.94996953 112.89928528 28.625 112.9375 C29.44226562 112.94652344 30.25953125 112.95554687 31.1015625 112.96484375 C31.72804688 112.97644531 32.35453125 112.98804688 33 113 C32.914878 103.66233934 32.81973183 94.32484615 32.71247292 84.98741341 C32.66294582 80.64968052 32.61661987 76.31196703 32.578125 71.97412109 C32.5407116 67.7723864 32.49421725 63.57083392 32.44193649 59.36925888 C32.42368491 57.78208553 32.40847468 56.1948736 32.39665604 54.60763931 C32.31975375 44.61822714 31.68852361 34.85584901 30.44735718 24.94137573 C29.88961635 20.0274808 29.33514457 14.92775204 30 10 C32.38801752 7.61198248 32.95048533 7.82818462 36.1875 7.5625 C41.66183586 6.59876411 45.09312642 4.01923759 49.375 0.6875 C55.59985925 -4.13177105 61.44870593 -7.54841549 69 -10 C69.85851563 -10.31582031 70.71703125 -10.63164062 71.6015625 -10.95703125 C88.97723434 -16.44013231 108.91476565 -13.93590205 124.92749023 -5.90893555 C128.72105371 -3.89085871 131.89177996 -1.56352321 135.125 1.25 C139.62666671 5.12352717 143.74017179 6.36997989 149.53125 7.4296875 C152 8 152 8 154 10 C154.75957159 15.93136047 153.9151584 21.91356929 153.00352478 27.77975464 C151.76538131 36.46872182 151.69608612 45.07395141 151.69360352 53.83642578 C151.68596112 55.57122139 151.67753016 57.30601368 151.66838074 59.040802 C151.64664787 63.7059339 151.63766708 68.37100039 151.63255429 73.03617716 C151.62888878 75.95924414 151.62263794 78.8822945 151.6155529 81.80535507 C151.59114305 92.02600596 151.57802258 102.24660662 151.57446289 112.46728516 C151.57082268 121.95994993 151.54087072 131.45229244 151.49905831 140.94485867 C151.46428355 149.12959641 151.4489133 157.31422752 151.44821686 165.49903858 C151.44742723 170.37253278 151.4388319 175.24569682 151.41021919 180.11911392 C151.38391092 184.70111052 151.38190389 189.2825058 151.39787483 193.86454391 C151.39967855 195.53616913 151.39309707 197.20783005 151.37705612 198.87937927 C151.28386796 209.22843761 152.09205523 217.62878354 157 227 C157.66 227.66 158.32 228.32 159 229 C158.75 231.5625 158.75 231.5625 158 234 C154.2630189 235.86849055 150.07690145 235.43720123 146 235 C143.98206104 234.32205725 141.98142296 233.59073331 140 232.8125 C133.72577803 230.50009345 130.00336032 231.50947552 124 234 C120.6272953 235.06652264 117.46723496 235.16563051 113.9375 235.1875 C112.89464844 235.20167969 111.85179687 235.21585938 110.77734375 235.23046875 C108 235 108 235 105 233 C105.60357921 229.64678219 106.78845534 227.74168519 108.9375 225.125 C113.78466773 218.81672429 114.41805937 212.74899896 115 205 C114.27296875 205.94359375 114.27296875 205.94359375 113.53125 206.90625 C100.08203012 224.07986924 83.83880693 235.77656022 62 239.375 C41.29292006 241.65230924 21.89000888 239.31071862 4.03515625 227.8203125 C1.24884223 226.69723007 -0.1463217 227.10822553 -3 228 C-5.04640744 228.94656428 -7.06692793 229.9504956 -9.0625 231 C-14.80819337 234.01413423 -18.63784924 235.14093895 -25.125 235.125 C-26.70667969 235.12886719 -26.70667969 235.12886719 -28.3203125 235.1328125 C-31 235 -31 235 -33 234 C-33 232.35 -33 230.7 -33 229 C-32.071875 228.6596875 -32.071875 228.6596875 -31.125 228.3125 C-28.23475407 226.5273481 -28.01610046 225.25152146 -27 222 C-26.62875 220.91138672 -26.62875 220.91138672 -26.25 219.80078125 C-23.32901915 210.85527738 -22.84653635 201.91027549 -22.796875 192.546875 C-22.79117493 191.68419006 -22.78547485 190.82150513 -22.77960205 189.93267822 C-22.77023115 188.12098385 -22.76364995 186.30927304 -22.75976562 184.49755859 C-22.75007178 181.77019607 -22.71897699 179.04359247 -22.6875 176.31640625 C-22.14782374 157.77589068 -22.14782374 157.77589068 -29.40625 141.390625 C-37.93131344 133.95208925 -48.29680043 133.8784658 -59.09570312 133.21777344 C-61 133 -61 133 -63 132 C-62.93855663 142.11051905 -62.86128504 152.22078491 -62.76428509 162.33102894 C-62.71972206 167.02657641 -62.68043562 171.72203992 -62.65356445 176.41772461 C-62.62739026 180.95664986 -62.58689003 185.49524955 -62.53681374 190.03397179 C-62.52023987 191.75810355 -62.50866697 193.48229149 -62.50238609 195.20649147 C-62.48473996 211.15713651 -62.48473996 211.15713651 -56.8125 225.875 C-54.99261671 229.01272981 -54.57129474 230.46318162 -55 234 C-63.85686007 236.4624454 -71.53341478 234.37970336 -79.953125 231.28125 C-82.86119192 230.88166829 -84.73068817 231.84669523 -87.4375 232.9375 C-93.93553407 235.24737927 -100.14225574 235.88024777 -107 235 C-107.66 234.34 -108.32 233.68 -109 233 C-108.9375 230.6875 -108.9375 230.6875 -108 228 C-106.8553125 227.01 -106.8553125 227.01 -105.6875 226 C-99.62786915 220.32161663 -98.77167878 210.15972786 -98.46655273 202.33642578 C-98.41894922 199.53883267 -98.42157831 196.74320578 -98.43359375 193.9453125 C-98.4283391 192.43040592 -98.42205601 190.91550261 -98.41481018 189.40060425 C-98.40448202 186.24558983 -98.40885567 183.09102853 -98.42358398 179.93603516 C-98.44074722 175.93649405 -98.41726827 171.93839321 -98.38209438 167.93901253 C-98.35990059 164.815815 -98.36161438 161.6929504 -98.3698597 158.56969833 C-98.37066752 157.09722185 -98.36403349 155.62471791 -98.34908867 154.15231705 C-98.23893982 141.33964847 -99.97269777 128.34512854 -108.9609375 118.515625 C-109.47527344 117.76539063 -109.47527344 117.76539063 -110 117 C-109.67 116.01 -109.34 115.02 -109 114 C-106.59454362 112.79727181 -105.05003047 112.89928528 -102.375 112.9375 C-101.55773437 112.94652344 -100.74046875 112.95554687 -99.8984375 112.96484375 C-99.27195312 112.97644531 -98.64546875 112.98804688 -98 113 C-99.52345583 109.343706 -101.08310158 105.84016252 -103 102.375 C-109.01865876 90.38397985 -109.61123568 76.59390325 -106.0390625 63.82421875 C-102.69517431 54.73537981 -96.3751449 47.92557581 -87.6875 43.75 C-76.68082887 39.25748117 -66.07874223 38.54171513 -55 43 C-49.07560067 46.7349474 -45.65391941 52.24649576 -44 59 C-43.62380114 64.17273437 -44.41446045 68.14428512 -46 73 C-47.32 73 -48.64 73 -50 73 C-50.33 71.68 -50.66 70.36 -51 69 C-53.90040319 68.16942999 -56.48572102 67.86467713 -59.5 67.875 C-60.2528125 67.87242188 -61.005625 67.86984375 -61.78125 67.8671875 C-64.01724811 68.00103246 -65.89021867 68.24158188 -68 69 C-69.24714403 71.40952023 -69.24714403 71.40952023 -70 74 C-70.33 74.66 -70.66 75.32 -71 76 C-71.83447162 83.8796009 -70.44784806 89.94071985 -67 97 C-66.66355469 97.7321875 -66.32710937 98.464375 -65.98046875 99.21875 C-64.68834866 101.5661873 -63.4395895 101.95446164 -61 103 C-60.175 103.515625 -59.35 104.03125 -58.5 104.5625 C-52.23942746 108.16232921 -43.72454443 108.06764616 -36.8046875 106.50390625 C-29.22137257 103.49438441 -25.53354454 98.85354268 -22.078125 91.79296875 C-19.40911888 84.87869565 -18.69142749 78.60851332 -18.69921875 71.26953125 C-18.69279106 69.90111336 -18.69279106 69.90111336 -18.68623352 68.50505066 C-18.68051898 66.58304672 -18.67996861 64.66102117 -18.68432617 62.73901367 C-18.68747235 59.83799159 -18.66403839 56.93800476 -18.63867188 54.03710938 C-18.26353165 35.12039805 -18.26353165 35.12039805 -26.34765625 18.58984375 C-30.80725313 14.29893138 -34.30966186 12.77431701 -40.5625 12.5625 C-46.94967652 12.84172083 -50.81674231 14.51825154 -55.1875 19.1875 C-58.14201314 22.84399929 -59.63480277 26.54646027 -61 31 C-61.66449943 33.00072111 -62.33078177 35.00085233 -63 37 C-63.58378418 36.97905273 -64.16756836 36.95810547 -64.76904297 36.93652344 C-78.89290112 36.09836758 -78.89290112 36.09836758 -92.16015625 40.125 C-94 41 -94 41 -98 41 C-98.12528076 40.18958252 -98.25056152 39.37916504 -98.37963867 38.54418945 C-98.86218047 35.46883352 -99.35776102 32.39591218 -99.86157227 29.32397461 C-100.17851901 27.36792649 -100.48107393 25.40956342 -100.78320312 23.45117188 C-102.33412262 14.074074 -104.70733338 5.25530229 -109.15698242 -3.19799805 C-110 -5 -110 -5 -109.9375 -7.625 C-109 -10 -109 -10 -107.0625 -11.375 C-101.67152032 -12.47519994 -96.46341437 -11.47207131 -91.10546875 -10.4453125 C-81.49525217 -8.60639819 -73.33200351 -9.11672323 -63.875 -11.5625 C-41.23363232 -16.61345994 -18.82066759 -13.57286101 0 0 Z M75 18 C67.70632518 26.79531375 67.56767879 37.85474931 67.70703125 48.76171875 C67.71127609 50.03352493 67.71552094 51.30533112 67.71989441 52.61567688 C67.73373588 55.95802699 67.76057357 59.29973341 67.79400635 62.64190674 C67.82497942 66.06785595 67.83845724 69.4938723 67.85351562 72.91992188 C67.88642309 79.61345529 67.93650012 86.30669059 68 93 C68.91362305 92.68712036 68.91362305 92.68712036 69.84570312 92.36791992 C70.64943359 92.09568604 71.45316406 91.82345215 72.28125 91.54296875 C73.07595703 91.27250732 73.87066406 91.0020459 74.68945312 90.72338867 C83.86731592 87.84997284 95.39209116 87.68394318 104.1328125 92.0703125 C108.43300282 94.67004733 112.15459433 97.7811756 116 101 C116.06980773 92.43702343 116.1229663 83.87416769 116.15543652 75.31097603 C116.17102819 71.333842 116.19214604 67.35690404 116.22631836 63.37988281 C116.25914583 59.5348915 116.27690176 55.69008764 116.28463173 51.84496689 C116.29013361 50.38509042 116.30087635 48.92522308 116.31719017 47.4654274 C116.44540325 35.50652269 115.73772619 24.94429182 107 16 C97.84178366 8.08124151 83.30255877 9.69744123 75 18 Z " fill="#F0A21A" transform="translate(1120,27)"/>
<path d="M0 0 C15.80248654 -0.51779992 15.80248654 -0.51779992 20.625 1.5625 C25.56726802 3.66754008 28.50837873 2.4528136 33.5 0.9375 C39.35828272 -0.58975658 48.49135231 -1.75432385 54 1 C53.42655063 3.86724686 53.1385485 4.8614515 51 7 C50.57747108 9.98761874 50.66024373 11.47920343 52.32275391 14.02758789 C52.99226074 14.73133545 53.66176758 15.43508301 54.3515625 16.16015625 C55.17430664 17.02914551 55.99705078 17.89813477 56.84472656 18.79345703 C57.89420383 19.86454399 58.94622546 20.93314058 60 22 C60.96311096 22.97921417 60.96311096 22.97921417 61.94567871 23.97821045 C67.3882019 29.49878787 72.87903747 34.970213 78.375 40.4375 C80.04320261 42.10067693 81.71117325 43.76408655 83.37890625 45.42773438 C87.02817232 49.06724428 90.67962337 52.70454486 94.33309937 56.33982849 C95.89076128 57.89120227 97.44608107 59.44487803 99 61 C99.10002085 55.68389163 99.17200342 50.36834921 99.21972656 45.05151367 C99.23965268 43.24868205 99.26680384 41.44591342 99.30175781 39.64331055 C99.97699772 22.38992816 99.97699772 22.38992816 93.36425781 6.9074707 C92 5 92 5 92 1 C96.89815112 -1.44907556 104.48144937 -0.67235644 109.6484375 0.70703125 C111.1292379 1.26043618 112.6073324 1.82116023 114.08203125 2.390625 C118.02709896 3.64404774 121.37338005 2.20732035 125.15234375 0.95703125 C129.40220417 -0.10004063 133.092971 -0.22834653 137.4375 -0.125 C138.53481445 -0.11146484 138.53481445 -0.11146484 139.65429688 -0.09765625 C141.43634298 -0.07436153 143.21821759 -0.0385019 145 0 C145.703125 1.75390625 145.703125 1.75390625 146 4 C144.671875 5.90234375 144.671875 5.90234375 142.75 7.9375 C134.29618205 18.2675332 135.56600129 32.52444193 135.61181641 45.16992188 C135.60774334 47.07190755 135.60239735 48.97389086 135.59588623 50.87586975 C135.58229428 56.00603431 135.58747752 61.1360164 135.59702349 66.26618385 C135.60466241 71.65593554 135.59756279 77.04567245 135.59286499 82.4354248 C135.58741971 91.48350811 135.59456676 100.53151775 135.60888672 109.57958984 C135.62521082 120.0139384 135.61992145 130.44811105 135.6034075 140.88245535 C135.58975758 149.86969801 135.58789008 158.85688798 135.59572351 167.84413767 C135.60038079 173.19933864 135.60107873 178.55445716 135.59111404 183.90965271 C135.58239547 188.94622904 135.58855497 193.98258038 135.60579681 199.01913261 C135.60973567 200.85844488 135.6086727 202.69777635 135.60200882 204.53708076 C135.13505866 222.26178277 135.13505866 222.26178277 142 238 C142 238.66 142 239.32 142 240 C143.32 240.66 144.64 241.32 146 242 C145.625 244.4375 145.625 244.4375 145 247 C139.58899487 249.70550256 132.17734991 248.27155665 126.625 246.5625 C125.85414063 246.29566406 125.08328125 246.02882813 124.2890625 245.75390625 C118.96306959 243.99978231 116.51348477 244.06440812 111.2421875 246.22265625 C104.61133017 248.52150748 98.51709477 248.40849155 92 246 C92.50786789 241.93705691 93.9643006 238.95217385 95.96484375 235.453125 C98.75164403 228.84893416 99.29946933 221.99153159 99.31884766 214.90014648 C99.32889328 214.04051804 99.3389389 213.18088959 99.34928894 212.29521179 C99.37988878 209.48717852 99.39709087 206.67923954 99.4140625 203.87109375 C99.43279286 201.91096702 99.45236764 199.95084819 99.4727478 197.99073792 C99.52387773 192.85672688 99.56360544 187.72268976 99.60089111 182.58856201 C99.64105129 177.33957569 99.6920886 172.09069608 99.7421875 166.84179688 C99.83871993 156.5612731 99.92319672 146.28068879 100 136 C99.08347656 136.47050781 98.16695312 136.94101563 97.22265625 137.42578125 C88.02976936 141.91636721 77.48815904 142.4587134 67.625 139.8125 C60.16406885 137.18847721 55.51538443 133.60915181 51.94921875 126.453125 C49.44199238 119.97354409 49.38311339 114.84307181 51.9375 108.375 C52.60380824 106.90686319 53.28389566 105.44450231 54 104 C55.32 104 56.64 104 58 104 C58.2784375 105.423125 58.2784375 105.423125 58.5625 106.875 C59.72093652 110.2937594 59.72093652 110.2937594 63.1875 111.4375 C67.26532872 112.03914686 70.02604903 112.10387527 74 111 C78.5037534 107.5971641 79.99190417 104.49870452 81 99 C81.78601253 92.28866222 80.69307395 87.68033568 77 82 C74.26415432 78.78600069 71.2882361 75.86403625 68.25 72.9375 C67.4765625 72.17373047 66.703125 71.40996094 65.90625 70.62304688 C61.08902936 65.89877596 56.12694969 61.38426627 51 57 C49.7893099 55.96255285 48.57872645 54.92498122 47.3682251 53.88731384 C46.7375626 53.34670791 46.1069001 52.80610197 45.45712662 52.24911404 C44.73584894 51.63080259 44.73584894 51.63080259 44 51 C44.03726834 72.75863384 44.09727791 94.51710112 44.18390274 116.27559662 C44.22360727 126.37985987 44.25604321 136.4840462 44.27099609 146.58837891 C44.28405729 155.40167934 44.31113517 164.21480992 44.35461307 173.02801466 C44.3771279 177.68879565 44.39291672 182.34936794 44.39188385 187.01020813 C44.39113129 191.40980937 44.40931799 195.80895102 44.44116783 200.20843315 C44.44958854 201.81102331 44.45147099 203.41366551 44.44580269 205.01626778 C44.40965514 216.82166375 44.97866244 229.39154321 51.15411758 239.80730438 C53 243 53 243 52.75 245.4375 C52.5025 245.953125 52.255 246.46875 52 247 C43.08716687 248.63664856 36.05364715 246.74443103 27.4921875 244.27734375 C24.29655328 243.92171674 22.40656699 244.73775456 19.4375 245.9375 C13.21133135 248.17490881 7.57339247 248.65305691 1 248 C0.34 247.67 -0.32 247.34 -1 247 C-1.375 244.9375 -1.375 244.9375 -1 242 C0.23046875 240.4609375 0.23046875 240.4609375 1.8125 238.8125 C11.14228148 228.58054625 9.15769694 211.18308884 9.23828125 198.28125 C9.246353 197.02090942 9.25442474 195.76056885 9.26274109 194.46203613 C9.27647086 191.81666394 9.28724179 189.17127486 9.29516602 186.52587891 C9.3040461 183.84173029 9.32500019 181.15809589 9.35668945 178.47412109 C9.39956949 174.55550846 9.4155574 170.63756869 9.42578125 166.71875 C9.44328934 165.53607544 9.46079742 164.35340088 9.47883606 163.1348877 C9.44958933 151.75554525 7.29071368 140.29071368 -1 132 C-1.125 129.375 -1.125 129.375 -1 127 C2.54351073 125.38010938 5.12719419 124.89585732 9 125 C9.04656494 113.13338359 9.08199105 101.2667893 9.10362434 89.40009975 C9.11401294 83.88852625 9.12808104 78.37701577 9.15087891 72.86547852 C9.17278433 67.53567457 9.18460555 62.20593081 9.18975449 56.87608528 C9.19341873 54.85377112 9.20057297 52.83145985 9.21146011 50.80917168 C9.98499728 29.03972668 9.98499728 29.03972668 3 9 C1.8553125 7.9171875 1.8553125 7.9171875 0.6875 6.8125 C0.130625 6.214375 -0.42625 5.61625 -1 5 C-0.60546875 2.38671875 -0.60546875 2.38671875 0 0 Z " fill="#F0A21A" transform="translate(558,14)"/>
<path d="M0 0 C1.51787109 0.52787109 1.51787109 0.52787109 3.06640625 1.06640625 C10.03197798 3.70791843 15.33993219 7.2168441 21 12 C25.53688665 15.57159162 29.22161915 16.67533133 34.828125 17.5078125 C37 18 37 18 39 20 C39.73247374 25.52586808 39.02080694 31.21307131 38.28136599 36.70350629 C36.98122917 46.43048433 36.70245711 56.00260377 36.70947266 65.80395508 C36.70346853 67.51111132 36.69665877 69.21826489 36.68911743 70.92541504 C36.67165628 75.50566143 36.666771 80.08583285 36.66548586 84.66610932 C36.664054 87.53658127 36.65976539 90.40703475 36.65449142 93.27750206 C36.63606751 103.31546596 36.62781247 113.35337717 36.62939453 123.39135742 C36.63059864 132.71362866 36.60942394 142.03566943 36.5779072 151.35788232 C36.55169999 159.39912137 36.54102887 167.44028521 36.54230535 175.48156661 C36.54281303 180.26831484 36.53723569 185.05485704 36.51594925 189.84156227 C36.49648769 194.33898461 36.49649606 198.83600562 36.51098251 203.33344269 C36.51306087 204.97484364 36.50842834 206.61627031 36.4962616 208.25762749 C36.42355216 218.75271738 37.01031823 228.47400157 42.64263344 237.68688679 C44 240 44 240 43.875 242.25 C43.441875 243.11625 43.441875 243.11625 43 244 C36.1616308 246.2794564 30.20918963 245.21379079 23.5625 242.75 C17.48428213 240.70499212 14.61483984 241.34988541 8.9140625 243.96484375 C3.48473108 245.89349365 -2.31603471 245.47173045 -8 245 C-8.66 244.67 -9.32 244.34 -10 244 C-10.375 241.9375 -10.375 241.9375 -10 239 C-8.76953125 237.42578125 -8.76953125 237.42578125 -7.1875 235.75 C1.22039356 226.60839875 0.16081173 212.94322537 0.31640625 201.3125 C0.3475779 199.36512939 0.3475779 199.36512939 0.37937927 197.37841797 C0.43416934 193.95250367 0.48376561 190.52653379 0.53222656 187.1005249 C0.58275924 183.59431094 0.63827826 180.08817618 0.69335938 176.58203125 C0.80041287 169.721423 0.9019716 162.86074298 1 156 C0.01 156.33 -0.98 156.66 -2 157 C-10.10666863 157.86452235 -14.44712139 156.37794219 -20.9375 151.5625 C-22.43815188 149.355659 -22.21090357 147.60114404 -22 145 C-21.2575 144.855625 -20.515 144.71125 -19.75 144.5625 C-18.8425 144.376875 -17.935 144.19125 -17 144 C-15.88625 143.814375 -15.88625 143.814375 -14.75 143.625 C-14.1725 143.41875 -13.595 143.2125 -13 143 C-11.33744634 138.01233902 -11.16717403 133.01631552 -13.1875 128.125 C-16.03117076 124.79104118 -18.11457865 123.23603748 -22.55859375 122.6796875 C-28.55695577 122.4355208 -32.37627741 122.8273723 -37 127 C-46.46499344 137.27627859 -46.31418129 149.18136243 -46.30078125 162.328125 C-46.30467595 163.9246227 -46.3090122 165.52111938 -46.31376648 167.11761475 C-46.32120326 170.45621098 -46.32095673 173.79470143 -46.31567383 177.13330078 C-46.30989401 181.38065951 -46.32678641 185.62758006 -46.3500185 189.87486649 C-46.36486011 193.1711677 -46.36561329 196.46736604 -46.36250877 199.76369476 C-46.36301714 201.32795832 -46.3681623 202.89222839 -46.37832069 204.45645905 C-46.4838375 221.80701219 -46.4838375 221.80701219 -39 237 C-38.401875 237.53625 -37.80375 238.0725 -37.1875 238.625 C-36.795625 239.07875 -36.40375 239.5325 -36 240 C-36.25146579 242.13745922 -36.45925779 243.45925779 -38 245 C-45.36093107 245.58618381 -51.89145765 245.84453759 -58.6875 242.75 C-63.18894474 240.82938358 -65.41995931 241.0567372 -70 242.75 C-70.98871094 243.15089844 -71.97742188 243.55179688 -72.99609375 243.96484375 C-78.53615213 245.8739666 -84.4519426 245.84935247 -90 244 C-90.51372377 239.76177893 -89.22969648 237.60442438 -87.08106995 234.03898621 C-82.31716592 225.05387415 -82.54001259 214.99925628 -82.56640625 205.10546875 C-82.56183101 203.58530955 -82.55652152 202.06515241 -82.55052185 200.54499817 C-82.54164083 197.37390694 -82.54395498 194.20306821 -82.55395508 191.03198242 C-82.56542107 187.00782471 -82.54524461 182.9845477 -82.51603794 178.96050549 C-82.49751291 175.82451521 -82.49800071 172.68872952 -82.50367546 169.55269814 C-82.50382679 168.07102539 -82.49794224 166.58933705 -82.48538399 165.10771751 C-82.39618534 152.85959321 -83.19553765 140.19891736 -91.73046875 130.6484375 C-93.19775241 128.74322611 -93.75127058 127.38975328 -94 125 C-92 123 -92 123 -89.6171875 122.8046875 C-88.71226562 122.82789063 -87.80734375 122.85109375 -86.875 122.875 C-85.96492188 122.89304687 -85.05484375 122.91109375 -84.1171875 122.9296875 C-83.41851562 122.95289063 -82.71984375 122.97609375 -82 123 C-82.08522285 114.07075703 -82.18040313 105.14168706 -82.28752708 96.21267986 C-82.33699844 92.06442644 -82.38332252 87.91619267 -82.421875 83.76782227 C-82.51383638 60.13065201 -82.51383638 60.13065201 -84.56005859 36.60498047 C-85.22821442 31.12995886 -85.61543555 25.49366734 -85 20 C-82.50681056 17.50681056 -81.12758405 17.58321955 -77.6875 17 C-71.56342769 15.5788636 -67.5352961 12.68690607 -62.80322266 8.7734375 C-57.93236352 4.78885499 -52.89649521 2.22215026 -47 0 C-45.9275 -0.4125 -44.855 -0.825 -43.75 -1.25 C-30.28958008 -4.92102361 -13.06000264 -4.77524326 0 0 Z M-40.5 28.25 C-45.44167463 34.87212883 -47.12877751 42.4903655 -47.11352539 50.60449219 C-47.11367142 51.25856552 -47.11381744 51.91263885 -47.1139679 52.58653259 C-47.11327341 54.74001426 -47.10550283 56.89340852 -47.09765625 59.046875 C-47.09579042 60.54331414 -47.09436729 62.03975388 -47.09336853 63.53619385 C-47.08955635 67.46858415 -47.07973717 71.40093732 -47.06866455 75.33331299 C-47.05842249 79.34850563 -47.05386492 83.3637043 -47.04882812 87.37890625 C-47.03811372 95.25262117 -47.02105291 103.12630596 -47 111 C-46.53311768 110.59297852 -46.06623535 110.18595703 -45.58520508 109.76660156 C-44.65550903 108.96174316 -44.65550903 108.96174316 -43.70703125 108.140625 C-43.09577393 107.60985352 -42.4845166 107.07908203 -41.85473633 106.53222656 C-34.21459011 100.2205828 -24.81756506 98.07381462 -15 99 C-9.46197252 99.84536868 -4.30582252 101.2083171 1 103 C1.05099588 95.36860022 1.0858572 87.73724491 1.10986328 80.10571289 C1.11987841 77.51324827 1.13349439 74.92079482 1.15087891 72.32836914 C1.17532515 68.58737417 1.18652836 64.84652945 1.1953125 61.10546875 C1.20563507 59.95918503 1.21595764 58.81290131 1.22659302 57.63188171 C1.22816559 46.17754246 0.21801319 36.25077108 -7 27 C-11.72941198 22.97496853 -16.64851753 21.45702034 -22.75 20.625 C-29.33997546 21.38538178 -35.91208545 23.23770335 -40.5 28.25 Z " fill="#F0A21A" transform="translate(507,17)"/>
<path d="M0 0 C1.49176758 -0.01836914 1.49176758 -0.01836914 3.01367188 -0.03710938 C17.95554158 -0.06654182 33.16951862 4.74577119 44.0625 15.375 C47.86079547 18.86360231 52.15451886 19.57627659 57.11328125 20.546875 C59.6875 21.1875 59.6875 21.1875 61.6875 23.1875 C62.4533535 29.19043994 61.694091 35.36774091 60.96937847 41.34015751 C59.03950409 58.03880794 59.37604633 74.86078667 59.38591743 91.64375234 C59.38700013 95.29711438 59.38207209 98.95045953 59.377312 102.60381788 C59.36629625 111.22344076 59.36573704 119.84302001 59.37182617 128.46264648 C59.3778865 137.31917604 59.36548466 146.17554756 59.3442561 155.03205019 C59.32660059 162.68271419 59.32064417 170.33332799 59.32389385 177.98401159 C59.32569739 182.53368197 59.32316214 187.08323904 59.30917931 191.6328907 C59.29653743 195.90378646 59.29860462 200.17443547 59.31159019 204.44532776 C59.3139401 206.00287398 59.31127884 207.56043797 59.30296707 209.11796379 C59.25181769 219.45467672 59.3828336 230.0209041 64.875 239.125 C66.71274807 242.23016053 67.11419098 243.66729941 66.6875 247.1875 C57.79955779 249.65858707 50.1562155 247.52589617 41.69921875 244.46875 C38.92103677 244.08034397 37.35454437 244.97760307 34.8125 246.125 C28.2133592 248.69875397 21.70181125 249.00822213 14.6875 248.1875 C14.0275 247.5275 13.3675 246.8675 12.6875 246.1875 C12.78416253 242.61098651 13.47675756 241.39269659 16.0625 238.875 C24.27451537 230.46746045 22.86291715 216.97052774 23.00390625 206.0625 C23.02451574 204.70629298 23.04551314 203.3500918 23.06687927 201.99389648 C23.12168803 198.44961321 23.17127632 194.90527601 23.21972656 191.36090088 C23.27024531 187.73404219 23.32577171 184.10726041 23.38085938 180.48046875 C23.48793585 173.38287939 23.58948978 166.28522082 23.6875 159.1875 C23.0275 159.5175 22.3675 159.8475 21.6875 160.1875 C14.86839131 160.99109867 9.93412877 160.51208915 4.24609375 156.57421875 C2.6875 155.1875 2.6875 155.1875 0.6875 152.1875 C1.0625 149.5 1.0625 149.5 1.6875 147.1875 C2.615625 147.22875 3.54375 147.27 4.5 147.3125 C7.84559719 147.45886339 7.84559719 147.45886339 10.6875 145.1875 C11.52016878 140.55231048 11.7925532 135.37714246 9.6328125 131.09765625 C7.19656395 128.14965135 5.15700725 126.33615662 1.33203125 125.94921875 C-4.84381805 125.78736891 -9.63114562 125.85812715 -14.3125 130.1875 C-23.63713228 140.61433467 -23.77422062 153.93725171 -23.7109375 167.21484375 C-23.71296533 168.73596841 -23.71588261 170.25709212 -23.71963501 171.7782135 C-23.72402646 174.94753384 -23.71773205 178.11659838 -23.70361328 181.28588867 C-23.68653787 185.31111286 -23.69637226 189.33573593 -23.71433067 193.36093807 C-23.72526796 196.49687577 -23.72167688 199.63267535 -23.7139473 202.76861763 C-23.71197185 204.25110511 -23.71430901 205.7336059 -23.72138596 207.2160778 C-23.94070655 223.66384931 -23.94070655 223.66384931 -17.3125 238.1875 C-17.3125 238.8475 -17.3125 239.5075 -17.3125 240.1875 C-16.3225 240.5175 -15.3325 240.8475 -14.3125 241.1875 C-13.9825 243.1675 -13.6525 245.1475 -13.3125 247.1875 C-18.66210854 249.86230427 -26.97532423 248.95024825 -32.484375 247.15234375 C-33.45890625 246.75144531 -34.4334375 246.35054687 -35.4375 245.9375 C-41.36131787 243.67181667 -44.61566101 244.81198015 -50.34375 247.1484375 C-54.92695645 248.75255976 -59.5200474 248.89444841 -64.3125 248.1875 C-65.3025 247.5275 -66.2925 246.8675 -67.3125 246.1875 C-66.90637966 242.83700716 -66.12216775 240.86685212 -64.3737793 237.92138672 C-57.02033646 225.26234229 -58.88169431 207.87769842 -58.97631836 193.82373047 C-58.99999522 190.06325915 -58.99684898 186.30349629 -58.99023438 182.54296875 C-58.04520605 157.20888153 -58.04520605 157.20888153 -68.0625 134.875 C-70.3125 132.1875 -70.3125 132.1875 -70.625 129.3125 C-70.521875 128.61125 -70.41875 127.91 -70.3125 127.1875 C-67.90704362 125.98477181 -66.36253047 126.08678528 -63.6875 126.125 C-62.87023437 126.13402344 -62.05296875 126.14304687 -61.2109375 126.15234375 C-60.58445312 126.16394531 -59.95796875 126.17554688 -59.3125 126.1875 C-58.78733159 81.65529631 -58.78733159 81.65529631 -61.8671875 37.265625 C-62.23051038 34.08699903 -62.47437794 30.95275755 -62.5 27.75 C-62.51417969 26.92628906 -62.52835938 26.10257813 -62.54296875 25.25390625 C-62.3125 23.1875 -62.3125 23.1875 -60.3125 21.1875 C-58.48922623 20.76630068 -56.6532278 20.39933421 -54.8125 20.0625 C-48.82883011 18.65918694 -45.44663421 16.23851366 -40.87890625 12.25 C-29.0140242 2.71475232 -14.75645624 0.00945321 0 0 Z M-17.3125 31.1875 C-24.27943822 41.46525726 -24.59814797 51.37850759 -24.5078125 63.40625 C-24.50407633 64.87455044 -24.50123222 66.34285339 -24.49923706 67.81115723 C-24.49164807 71.65147949 -24.47204103 75.49164737 -24.4498291 79.33190918 C-24.42926793 83.26031405 -24.42021351 87.18874418 -24.41015625 91.1171875 C-24.38879002 98.80736159 -24.35471222 106.49740906 -24.3125 114.1875 C-23.84058731 113.77345413 -23.36867462 113.35940826 -22.88246155 112.93281555 C-22.25875168 112.39077988 -21.63504181 111.8487442 -20.99243164 111.2902832 C-20.37614395 110.75248734 -19.75985626 110.21469147 -19.12489319 109.66059875 C-11.53444478 103.49114272 -1.86396476 101.51693484 7.6875 102.1875 C13.3233088 102.95529979 18.42164917 104.0230598 23.6875 106.1875 C23.75751037 98.96293738 23.81056696 91.73844984 23.84293652 84.51361465 C23.85848523 81.15750756 23.88118193 77.80181068 23.91381836 74.44580078 C23.95051543 70.57318099 23.96729832 66.70088793 23.98046875 62.828125 C23.99595261 61.643255 24.01143646 60.45838501 24.02738953 59.23760986 C24.02940863 49.07692543 23.15730785 38.82619823 16.33984375 30.80859375 C11.33793303 25.90128182 6.43535959 24.48785728 -0.53125 24.0859375 C-6.9626677 24.32079264 -12.84705248 26.47397206 -17.3125 31.1875 Z " fill="#F0A21A" transform="translate(937.3125,13.8125)"/>
<path d="M0 0 C1.44554875 1.15162051 2.87133334 2.32922587 4.26171875 3.546875 C7.61680702 6.10642687 11.33145145 7.12123819 15.40625 7.9921875 C16.64375 8.3221875 17.88125 8.6521875 19.15625 8.9921875 C20.61772793 11.91514336 20.07313683 14.2328403 19.84375 17.4921875 C19.79754328 18.16612108 19.75133656 18.84005466 19.70372963 19.53441048 C19.40430513 23.81023889 19.06283226 28.07821825 18.66342163 32.34591675 C17.03305905 50.37819768 16.82760707 68.31229778 16.82173586 86.40053415 C16.82029327 88.90842821 16.81598572 91.41630168 16.81074142 93.92419052 C16.79239633 102.71542458 16.78405353 111.50659898 16.78564453 120.29785156 C16.78685091 128.43134273 16.76561153 136.56457077 16.7341572 144.69799531 C16.70788951 151.74670669 16.69728118 158.79533238 16.69855535 165.84409225 C16.69906067 170.02610208 16.69361537 174.20787535 16.67219925 178.38983536 C16.65263008 182.31532685 16.65281753 186.2403597 16.66723251 190.16586876 C16.66929677 191.59112799 16.66476524 193.01641755 16.6525116 194.4416256 C16.55075767 207.11221168 17.80016998 219.3695319 25.15625 229.9921875 C25.09375 232.3046875 25.09375 232.3046875 24.15625 233.9921875 C17.4732722 236.21984677 11.56711764 235.32118848 5.09375 232.8046875 C-0.94756865 230.58098462 -4.1684228 231.37192554 -9.84375 233.9921875 C-13.38274928 235.15930429 -16.75906883 235.1255615 -20.46875 235.1171875 C-21.61601563 235.11976563 -22.76328125 235.12234375 -23.9453125 235.125 C-26.84375 234.9921875 -26.84375 234.9921875 -28.84375 233.9921875 C-28.84375 232.3421875 -28.84375 230.6921875 -28.84375 228.9921875 C-27.915625 228.6209375 -27.915625 228.6209375 -26.96875 228.2421875 C-23.39644238 226.14083007 -22.55400444 222.41545991 -21.28125 218.6171875 C-21.03246094 217.88757813 -20.78367187 217.15796875 -20.52734375 216.40625 C-19.13709411 211.4966827 -18.71110497 206.70703569 -18.63842773 201.61962891 C-18.61848251 200.37879547 -18.59853729 199.13796204 -18.57798767 197.85952759 C-18.56100879 196.52093629 -18.54412979 195.18234373 -18.52734375 193.84375 C-18.50674822 192.46226415 -18.4857511 191.08078423 -18.46437073 189.6993103 C-18.40941822 186.07937452 -18.35989176 182.45938442 -18.31152344 178.83935547 C-18.26111139 175.13894875 -18.20552862 171.43862003 -18.15039062 167.73828125 C-18.04313759 160.48964955 -17.941621 153.24095259 -17.84375 145.9921875 C-18.83375 146.3221875 -19.82375 146.6521875 -20.84375 146.9921875 C-27.72430892 147.7259534 -32.2386762 147.1102009 -37.84375 142.9921875 C-39.84375 141.0546875 -39.84375 141.0546875 -40.84375 138.9921875 C-40.53125 136.2421875 -40.53125 136.2421875 -39.84375 133.9921875 C-38.915625 134.0540625 -37.9875 134.1159375 -37.03125 134.1796875 C-33.94097245 134.25195513 -33.94097245 134.25195513 -32.03125 132.8671875 C-29.97489534 129.62031173 -29.49423877 126.75331688 -30.24609375 122.96484375 C-31.39203755 119.32359037 -32.61518915 117.22074835 -35.34375 114.4921875 C-40.93797797 112.09466123 -46.28107213 111.88610741 -52.12109375 113.69921875 C-58.61461737 117.02699381 -61.58093696 123.31184454 -63.84375 129.9921875 C-65.73284759 138.59239501 -66.13890946 146.98237897 -66.109375 155.76171875 C-66.11128845 157.04092697 -66.1132019 158.32013519 -66.11517334 159.6381073 C-66.11809662 162.3282055 -66.11392052 165.01816955 -66.10449219 167.70825195 C-66.09313248 171.11038197 -66.09983998 174.51219803 -66.11136913 177.91431713 C-67.46601282 204.72305331 -67.46601282 204.72305331 -57.03125 228.3046875 C-56.309375 229.1915625 -55.5875 230.0784375 -54.84375 230.9921875 C-55.84375 233.9921875 -55.84375 233.9921875 -57.84375 234.9921875 C-64.63818869 235.54925841 -70.86551732 235.81962816 -77.09375 232.8046875 C-81.01053328 230.95617262 -83.06837325 230.909164 -87.21875 232.1796875 C-88.76517777 232.77156132 -90.30728717 233.37490682 -91.84375 233.9921875 C-94.92104521 234.93670385 -97.69054188 235.12688798 -100.90625 235.1171875 C-102.19208984 235.12105469 -102.19208984 235.12105469 -103.50390625 235.125 C-105.84375 234.9921875 -105.84375 234.9921875 -108.84375 233.9921875 C-109.33185075 229.8433311 -108.27855921 228.1242911 -105.9250946 224.80892944 C-100.74980422 216.11404433 -101.41533145 205.45766123 -101.48046875 195.703125 C-101.48098881 194.14856975 -101.48046547 192.59401384 -101.47895813 191.03945923 C-101.47904726 187.80029326 -101.48935685 184.56137924 -101.50756836 181.32226562 C-101.53029148 177.19246611 -101.53078625 173.06303239 -101.52405071 168.93318748 C-101.52069343 165.729653 -101.52737317 162.52620033 -101.53717995 159.32268143 C-101.54099909 157.80060887 -101.54219398 156.27852716 -101.5405941 154.75645065 C-101.53826121 141.49102094 -102.57516085 129.7454425 -111.21875 119.0546875 C-111.755 118.3740625 -112.29125 117.6934375 -112.84375 116.9921875 C-112.51375 116.0021875 -112.18375 115.0121875 -111.84375 113.9921875 C-109.43829362 112.78945931 -107.89378047 112.89147278 -105.21875 112.9296875 C-104.40148437 112.93871094 -103.58421875 112.94773437 -102.7421875 112.95703125 C-102.11570312 112.96863281 -101.48921875 112.98023438 -100.84375 112.9921875 C-100.92909049 104.09748728 -101.02430978 95.20295824 -101.13127708 86.30849171 C-101.18068372 82.1759897 -101.2270053 78.04350668 -101.265625 73.91088867 C-101.45560362 49.38311298 -101.45560362 49.38311298 -103.40380859 24.94482422 C-104.53128577 14.81504871 -104.53128577 14.81504871 -103.84375 9.9921875 C-101.35056056 7.49899806 -99.97133405 7.57540705 -96.53125 6.9921875 C-91.21280175 5.75607617 -87.607665 3.63416512 -83.46875 0.1796875 C-59.79369118 -19.48937269 -24.34410234 -17.18800632 0 0 Z M-58.71875 17.8046875 C-67.10950187 28.48206459 -67.14156711 39.84925007 -67.0390625 52.96875 C-67.03532374 54.38935139 -67.03248086 55.80995539 -67.03048706 57.2305603 C-67.02291839 60.93604892 -67.0033297 64.64137611 -66.9810791 68.34680176 C-66.96047327 72.14133522 -66.95145411 75.93589524 -66.94140625 79.73046875 C-66.92007606 87.15111457 -66.88602392 94.57162826 -66.84375 101.9921875 C-66.36259232 101.57773376 -65.88143463 101.16328003 -65.38569641 100.73626709 C-64.75479599 100.19391418 -64.12389557 99.65156128 -63.47387695 99.09277344 C-62.84834427 98.5545697 -62.22281158 98.01636597 -61.57832336 97.46185303 C-54.04782303 91.08142717 -45.98184611 88.48344841 -36.0546875 88.7265625 C-31.21388366 89.30814317 -26.5339561 90.69903067 -21.84375 91.9921875 C-20.51105385 92.3280593 -19.17783409 92.6618717 -17.84375 92.9921875 C-17.77380927 85.6199689 -17.72071748 78.24782347 -17.68831348 70.87533855 C-17.67275019 67.45087027 -17.65168632 64.02663129 -17.61743164 60.60229492 C-17.5781778 56.6528613 -17.56396366 52.703516 -17.55078125 48.75390625 C-17.53529739 47.54200119 -17.51981354 46.33009613 -17.50386047 45.08146667 C-17.50198158 35.45973318 -18.34156931 25.57806497 -24.84375 17.9921875 C-30.04833912 13.34569646 -35.22590268 11.32717336 -42.21875 10.6796875 C-49.04587887 11.26823309 -54.01225903 12.61166054 -58.71875 17.8046875 Z " fill="#F0A21A" transform="translate(112.84375,27.0078125)"/>
<path d="M0 0 C2.98167073 1.02847148 2.98167073 1.02847148 5.96484375 -0.7578125 C10.40528595 -2.78621302 14.50591848 -2.65105292 19.3125 -2.5 C20.55290039 -2.47969727 20.55290039 -2.47969727 21.81835938 -2.45898438 C23.8375264 -2.42396992 25.85635318 -2.37017562 27.875 -2.3125 C28.484375 -0.4765625 28.484375 -0.4765625 28.875 1.6875 C27.93154947 3.10267579 26.98098551 4.51374081 25.99116516 5.8968811 C20.99467979 13.91254172 21.40437724 23.56332819 21.36328125 32.6640625 C21.34640019 34.08468136 21.32824545 35.50528559 21.30888367 36.9258728 C21.26174865 40.6312401 21.23170504 44.3365481 21.20544434 48.04211426 C21.17545255 51.83678902 21.12898717 55.63126008 21.08398438 59.42578125 C20.99836767 66.84625225 20.93083952 74.26673876 20.875 81.6875 C21.98270752 81.67307861 23.09041504 81.65865723 24.23168945 81.64379883 C30.22159175 81.71564715 34.20190972 84.0552168 38.4375 88.1875 C39.875 90.6875 39.875 90.6875 39.625 93 C39.3775 93.556875 39.13 94.11375 38.875 94.6875 C37.59625 94.77 36.3175 94.8525 35 94.9375 C31.77384326 95.28141937 31.77384326 95.28141937 29.375 97.3125 C28.07877202 103.46958289 28.71733001 108.21420534 31.875 113.6875 C35.33706625 116.32526476 38.00997483 116.91010514 42.25 116.625 C49.58918092 115.453198 54.7168873 112.4550574 59.55078125 106.859375 C64.74634204 98.33804226 64.31601211 89.77050833 64.2734375 80.140625 C64.2754624 78.52170684 64.27837729 76.90278958 64.28213501 75.28387451 C64.28654386 71.89814532 64.28017738 68.51265447 64.26611328 65.12695312 C64.24907712 60.8190357 64.25883614 56.51168145 64.27683067 52.20378494 C64.28775473 48.86114383 64.28418209 45.51863261 64.2764473 42.17598724 C64.27446614 40.58940309 64.27682999 39.00280658 64.28388596 37.41623688 C64.32556725 25.40542748 64.25059316 13.95738645 56.171875 4.37890625 C54.53552581 2.24475203 54.04183636 0.35688177 53.875 -2.3125 C61.84432824 -4.96894275 71.40277233 -3.19083562 79 0 C82.50266789 0.83759449 83.9874609 -0.15231557 87.17578125 -1.57421875 C93.4653136 -3.29451052 100.40730903 -2.51094052 106.875 -2.3125 C107.81560606 0.21288477 108.05028622 1.28737408 106.94921875 3.80078125 C106.26279297 4.88939453 106.26279297 4.88939453 105.5625 6 C100.48109395 14.61446122 99.7591044 23.66755732 99.7331543 33.48950195 C99.72794266 34.59128784 99.72794266 34.59128784 99.72262573 35.71533203 C99.71532703 37.29595004 99.70995066 38.87657791 99.70633507 40.45720863 C99.69909496 42.96872108 99.683374 45.48004644 99.66499329 47.99150085 C99.61287228 55.12736467 99.56458753 62.26311975 99.54907227 69.39916992 C99.53893085 73.77878606 99.50945952 78.15791951 99.46775246 82.53734398 C99.45553288 84.19449382 99.45030446 85.85171204 99.45255089 87.50890541 C99.46820921 102.82685257 96.49324369 114.90461391 85.625 126.25 C82.875 128.6875 82.875 128.6875 80.875 128.6875 C86.38506878 135.77187414 90.63241917 137.89919223 99.546875 139.2578125 C101.875 139.6875 101.875 139.6875 102.875 140.6875 C102.83437298 142.12819649 102.71187021 143.5664919 102.5625 145 C102.46477295 145.9691333 102.3670459 146.9382666 102.26635742 147.93676758 C101.98798542 150.60465842 101.69266363 153.26720016 101.38134766 155.93115234 C100.05060271 167.69675766 99.53163152 179.33321571 99.55932617 191.17114258 C99.56251814 194.01616724 99.53877895 196.86017825 99.51367188 199.70507812 C99.38082494 219.72317128 99.38082494 219.72317128 106.984375 237.85546875 C107.875 239.6875 107.875 239.6875 107.578125 241.86328125 C106.875 243.6875 106.875 243.6875 105.875 244.6875 C95.10344505 245.51399667 86.11013718 244.25190442 75.875 240.6875 C74.885 240.3575 73.895 240.0275 72.875 239.6875 C70.88035886 240.68343253 70.88035886 240.68343253 68.8125 242.125 C63.77454052 245.12457456 59.61171713 245.22644002 53.875 244.6875 C53.171875 242.921875 53.171875 242.921875 52.875 240.6875 C54.203125 238.828125 54.203125 238.828125 56.125 236.9375 C64.23072181 228.23434451 64.0329849 217.59383491 64.11328125 206.26953125 C64.12538887 204.62908089 64.12538887 204.62908089 64.13774109 202.95549011 C64.15152977 200.64669353 64.16227508 198.33787701 64.17016602 196.02905273 C64.18167834 193.68524129 64.20211809 191.3414559 64.23168945 188.99780273 C64.27464848 185.58820006 64.29057388 182.17937196 64.30078125 178.76953125 C64.32704338 177.22202934 64.32704338 177.22202934 64.35383606 175.64326477 C64.32864546 167.0537896 62.8980197 158.48565296 57.4375 151.625 C50.45447722 146.34515351 44.46304076 144.44034773 35.875 143.6875 C34.29103931 143.5486463 32.70765782 143.40299026 31.125 143.25 C30.42890625 143.18941406 29.7328125 143.12882813 29.015625 143.06640625 C26.46101371 142.61422141 24.26781093 141.67479374 21.875 140.6875 C21.80528607 151.33660647 21.75208044 161.98565805 21.71956348 172.63494682 C21.70395176 177.58060683 21.68279608 182.52610995 21.64868164 187.47167969 C21.61592729 192.25034234 21.59811324 197.0288547 21.59036827 201.807621 C21.5848535 203.62475065 21.57408491 205.4418727 21.55780983 207.25893784 C21.14474254 222.92322244 21.14474254 222.92322244 27.125 237.0625 C28.875 239.6875 28.875 239.6875 28.6875 242 C27.875 243.6875 27.875 243.6875 26.875 244.6875 C14.11205538 245.58800627 14.11205538 245.58800627 8.5 243.125 C3.85417991 241.28269203 1.71981437 241.65499858 -3.125 242.6875 C-3.8571875 243.03167969 -4.589375 243.37585938 -5.34375 243.73046875 C-9.05099297 245.00613522 -12.5705447 244.90234883 -16.4375 244.8125 C-17.17806641 244.80347656 -17.91863281 244.79445313 -18.68164062 244.78515625 C-20.49623467 244.76174213 -22.31066071 244.72587615 -24.125 244.6875 C-24.796875 242.39453125 -24.796875 242.39453125 -25.125 239.6875 C-24.015625 237.94921875 -24.015625 237.94921875 -22.375 236.375 C-13.1659984 226.43953423 -14.96774335 211.58712591 -14.95703125 198.9296875 C-14.95380802 197.53207365 -14.95044319 196.13446012 -14.94694519 194.73684692 C-14.94100287 191.82732358 -14.93910044 188.91782975 -14.93969727 186.00830078 C-14.93979918 182.3022687 -14.92609474 178.59642692 -14.90892506 174.89043999 C-14.89775072 172.01119128 -14.89577964 169.13198804 -14.89630699 166.25271988 C-14.89457384 164.22940904 -14.8837795 162.20611237 -14.87275696 160.18283081 C-14.89877212 149.65422549 -15.43047374 139.75005082 -22.875 131.625 C-25.125 128.6875 -25.125 128.6875 -25.0625 125.875 C-24.125 123.6875 -24.125 123.6875 -22.125 122.6875 C-19.7920134 122.64727609 -17.45793334 122.64429753 -15.125 122.6875 C-15.101767 110.49102019 -15.08402923 98.2945457 -15.07318783 86.09804821 C-15.0679829 80.43392845 -15.06092892 74.7698239 -15.04956055 69.10571289 C-15.03864641 63.63328719 -15.03270517 58.16087607 -15.03012276 52.68844032 C-15.02828382 50.60700565 -15.02469298 48.52557172 -15.01926994 46.4441433 C-13.86453251 24.01564875 -13.86453251 24.01564875 -22.875 4.375 C-25.125 1.6875 -25.125 1.6875 -25.125 -2.3125 C-17.02252576 -5.01332475 -7.71772312 -3.24144371 0 0 Z " fill="#F0A21A" transform="translate(169.125,17.3125)"/>
<path d="M0 0 C1.23218262 0.0112793 2.46436523 0.02255859 3.73388672 0.03417969 C18.3109879 0.25419684 33.10822108 0.69714643 44.25 11.27734375 C50.81546288 18.40360658 54.87429828 26.23339169 58.125 35.3125 C58.49625 36.30830078 58.49625 36.30830078 58.875 37.32421875 C60.91866775 43.86679398 60.87011944 51.55835278 60.125 58.3125 C58.875 60.265625 58.875 60.265625 57.125 61.3125 C55.07421875 61.46484375 55.07421875 61.46484375 52.8125 61.25 C47.98029049 61.13327996 45.85967361 62.04466059 42.125 65.3125 C39.04015791 68.57330456 36.07666486 71.93130183 33.125 75.3125 C29.35065614 79.45507253 25.30688176 83.05994711 20.125 85.3125 C16.625 85.125 16.625 85.125 14.125 84.3125 C14.72845872 81.47562189 15.61031468 79.31135473 17.0625 76.8125 C22.35487554 66.40095393 22.90529093 51.58665463 19.9375 40.375 C17.8082976 34.9701016 14.45699034 30.73490549 9.375 27.875 C2.21160506 24.81861816 -4.65583436 24.51568116 -11.90625 27.375 C-17.99839913 30.27602339 -20.41331634 34.27740458 -22.875 40.3125 C-26.38760946 50.32343697 -24.88104357 59.7694308 -20.50390625 69.296875 C-15.97714659 77.50366229 -10.09408435 84.3711715 -3.875 91.3125 C-3.05515625 92.24320312 -2.2353125 93.17390625 -1.390625 94.1328125 C5.41533082 101.72081914 12.63577596 108.87166915 19.92773438 115.99072266 C21.12946289 117.17480713 21.12946289 117.17480713 22.35546875 118.3828125 C23.08145264 119.09195801 23.80743652 119.80110352 24.55541992 120.53173828 C26.125 122.3125 26.125 122.3125 26.125 124.3125 C26.785 124.3125 27.445 124.3125 28.125 124.3125 C28.125 124.9725 28.125 125.6325 28.125 126.3125 C28.785 126.3125 29.445 126.3125 30.125 126.3125 C31.74609375 127.95703125 31.74609375 127.95703125 33.5625 130.125 C36.09839332 133.13713265 36.09839332 133.13713265 38.84765625 135.94921875 C40.125 137.3125 40.125 137.3125 40.125 139.3125 C40.785 139.3125 41.445 139.3125 42.125 139.3125 C43.6766192 141.17505272 45.06512375 143.01016711 46.4375 145 C46.83904297 145.58072266 47.24058594 146.16144531 47.65429688 146.75976562 C54.17570193 156.54714089 57.06719871 166.79049799 57.625 178.4296875 C57.66560547 179.20506866 57.70621094 179.98044983 57.74804688 180.77932739 C57.87717136 183.24855386 58.00159638 185.71798145 58.125 188.1875 C58.24857689 190.64986599 58.37330769 193.11214258 58.50195312 195.57424927 C58.58177843 197.10231397 58.65877232 198.63053022 58.73242188 200.15890503 C58.9638322 204.59382557 59.46904959 208.91577739 60.125 213.3125 C60.1883117 215.45750031 60.2116101 217.60420098 60.1875 219.75 C60.17847656 220.80058594 60.16945313 221.85117188 60.16015625 222.93359375 C60.14275391 224.11115234 60.14275391 224.11115234 60.125 225.3125 C59.17625 225.539375 58.2275 225.76625 57.25 226 C49.94789522 228.12611485 43.72773619 231.74570231 37.6875 236.3125 C26.01089727 245.03300077 12.93295896 248.90454965 -1.5625 248.8125 C-2.60688232 248.80750488 -3.65126465 248.80250977 -4.72729492 248.79736328 C-21.31565658 248.42700183 -34.92756095 242.24689702 -47.75 231.8515625 C-50.97237208 229.51771213 -54.07825313 228.49509329 -57.875 227.3125 C-59.87596339 226.64873048 -61.87613378 225.98255841 -63.875 225.3125 C-63.90252977 223.33341515 -63.92163002 221.35421269 -63.9375 219.375 C-63.94910156 218.27285156 -63.96070313 217.17070312 -63.97265625 216.03515625 C-63.875 212.3125 -63.875 212.3125 -63.38671875 208.48828125 C-62.57344267 201.64181702 -62.65154172 194.74212225 -62.63476562 187.85693359 C-62.62504983 185.44984498 -62.59394334 183.0436084 -62.5625 180.63671875 C-62.20935904 165.81739756 -62.20935904 165.81739756 -68.5625 152.9375 C-70.875 150.3125 -70.875 150.3125 -71.1875 147.4375 C-71.084375 146.73625 -70.98125 146.035 -70.875 145.3125 C-63.12775057 144.82829691 -57.61366645 146.60296432 -51.625 151.625 C-48.42423253 154.58633998 -46.07306621 157.55747022 -43.875 161.3125 C-43.35292969 161.10753906 -42.83085937 160.90257812 -42.29296875 160.69140625 C-34.38081806 157.7953651 -25.85788743 155.64468686 -17.875 159.3125 C-18.38501846 163.39264766 -19.85929492 166.42517802 -21.83984375 169.95703125 C-24.68366985 176.42807706 -25.2366625 182.71696003 -25.1875 189.6875 C-25.18186035 190.52385986 -25.1762207 191.36021973 -25.17041016 192.22192383 C-24.97379949 202.22278796 -22.92118365 209.92509681 -15.875 217.3125 C-9.7913488 222.05774794 -4.43872274 223.02919792 3.125 222.3125 C9.40528122 220.21907293 14.1269648 217.52760935 17.3125 211.625 C22.15627276 200.91771284 23.38340854 187.20150294 19.41796875 176.03125 C12.31466404 161.09499598 1.84282346 145.72433977 -13.8125 139.0625 C-18.14010293 138.00267888 -22.4949601 137.1261833 -26.875 136.3125 C-26.4700141 131.04768335 -25.76900067 128.8326766 -21.875 125.3125 C-22.51937012 124.69431396 -23.16374023 124.07612793 -23.82763672 123.43920898 C-48.2004675 99.92826434 -48.2004675 99.92826434 -54.875 87.3125 C-55.40867187 86.35988281 -55.94234375 85.40726562 -56.4921875 84.42578125 C-61.34600065 74.15599015 -61.02006039 62.56369827 -61.66455078 51.42041016 C-61.95210043 47.17388235 -62.44772408 42.96900214 -63 38.75 C-63.70770687 33.22883112 -64.07749405 27.88108633 -63.875 22.3125 C-63.01519531 22.13976562 -62.15539062 21.96703125 -61.26953125 21.7890625 C-53.24930189 19.88239947 -47.90681038 17.27464068 -41.56396484 12.03344727 C-29.55186209 2.1819131 -15.15843356 -0.22782179 0 0 Z " fill="#F0A11A" transform="translate(345.875,13.6875)"/>
<path d="M0 0 C0.69316315 0.00232635 1.38632629 0.00465271 2.10049438 0.00704956 C11.76305917 0.04489196 21.1290823 0.75672888 30.66650391 2.36645508 C38.54602591 3.67066833 45.66380625 3.15542397 53.53173828 1.86914062 C61.81954966 0.5450597 69.95970805 0.0321222 78.34155273 0.05932617 C80.37082435 0.06249348 82.39864025 0.03887345 84.42773438 0.01367188 C95.32951116 -0.03853655 109.70289827 0.09616522 118.4375 7.375 C119.875 10.125 119.875 10.125 119.4375 13.375 C117.61241097 15.44586161 115.61318803 17.24508649 113.578125 19.109375 C104.90304759 28.29102628 104.07691928 41.81084016 104.0625 53.75 C104.03800781 54.80960938 104.01351562 55.86921875 103.98828125 56.9609375 C103.95250598 66.6918101 106.0779617 75.10719745 112.25 82.8125 C115.4916803 86.86961328 115.4916803 86.86961328 115.19921875 89.59765625 C114.4375 91.375 114.4375 91.375 113.4375 92.375 C108.36362259 92.53355867 104.40561684 91.58266623 100.125 88.875 C96.42286135 86.59676083 93.71134383 86.04932538 89.375 85.875 C83.54104313 85.57107086 79.67338456 84.50687847 75.4375 80.375 C69.74848706 73.09865086 66.97044722 65.59565662 67.625 56.375 C68.27974529 51.45679701 69.58172237 46.96825956 71.4375 42.375 C71.69144531 41.74207031 71.94539062 41.10914063 72.20703125 40.45703125 C75.22567371 33.77190983 79.95325444 28.12403277 84.4375 22.375 C83.82753174 22.46587891 83.21756348 22.55675781 82.58911133 22.65039062 C79.8099444 23.06231465 77.02999549 23.46870704 74.25 23.875 C73.29029297 24.01808594 72.33058594 24.16117188 71.34179688 24.30859375 C70.41044922 24.44394531 69.47910156 24.57929687 68.51953125 24.71875 C67.66593018 24.84443359 66.8123291 24.97011719 65.93286133 25.09960938 C63.41176874 25.37783973 60.97157209 25.39360729 58.4375 25.375 C58.49809294 51.24458332 58.57563424 77.11406815 58.67321491 102.98353958 C58.718133 114.99585339 58.75755689 127.00813781 58.78393555 139.02050781 C58.80694787 149.49351 58.8403821 159.96641889 58.88620156 170.43934703 C58.91009006 175.98193023 58.92884751 181.52442128 58.93511391 187.06705475 C58.94118451 192.29061724 58.96125567 197.51394407 58.99177551 202.73741913 C59.00052412 204.64808004 59.00428495 206.55877179 59.00250816 208.4694519 C58.79240105 225.55087308 58.79240105 225.55087308 64.6875 241.3125 C66.4375 244.375 66.4375 244.375 66.1875 247.3125 C65.94 247.993125 65.6925 248.67375 65.4375 249.375 C57.41601899 250.84797107 51.19361401 249.59103257 43.4375 247.375 C38.42801249 246.06882252 36.14197631 247.19077885 31.4375 249.375 C27.86457866 250.26528238 24.48973744 250.53717467 20.8125 250.5625 C19.87148438 250.57667969 18.93046875 250.59085938 17.9609375 250.60546875 C15.4375 250.375 15.4375 250.375 12.4375 248.375 C12.66548037 244.61332387 13.75541863 242.894899 16.3125 240.3125 C23.80502314 231.94265941 22.88786378 219.33408952 22.8359375 208.75 C22.83796541 207.27132016 22.84088275 205.79264131 22.84463501 204.31396484 C22.84902476 201.23460241 22.84273679 198.15550336 22.82861328 195.07617188 C22.81152317 191.16294374 22.82138256 187.25033326 22.83933067 183.33712769 C22.85026003 180.28958629 22.84668068 177.2421872 22.8389473 174.19464111 C22.83697045 172.7531934 22.83931419 171.31173202 22.84638596 169.87030029 C22.89334323 157.61465414 21.93098003 146.46330969 14.4375 136.375 C13.839375 135.55 13.24125 134.725 12.625 133.875 C12.0371875 133.1325 12.0371875 133.1325 11.4375 132.375 C12.0625 130.4375 12.0625 130.4375 13.4375 128.375 C17.38836687 127.25845067 19.39492988 127.36435747 23.4375 128.375 C23.4375 94.385 23.4375 60.395 23.4375 25.375 C20.1375 25.045 16.8375 24.715 13.4375 24.375 C12.426875 24.189375 11.41625 24.00375 10.375 23.8125 C6.38631615 23.2184407 2.46208016 23.2945084 -1.5625 23.375 C-1.5625 24.035 -1.5625 24.695 -1.5625 25.375 C-0.9025 25.375 -0.2425 25.375 0.4375 25.375 C2.0013694 27.47022271 3.4205928 29.54388367 4.8125 31.75 C5.21662109 32.38470215 5.62074219 33.0194043 6.03710938 33.67333984 C12.36310501 43.83645682 16.01483228 53.89653541 14.01171875 65.93359375 C12.06962381 73.57091189 8.09097412 79.65613554 1.75 84.375 C-1.44448958 85.33937421 -3.93865247 85.53814798 -7.25 85.6875 C-13.25353378 86.01523634 -16.99845971 88.00539407 -22.078125 91.06640625 C-25.58691156 92.91458785 -27.68831862 93.03443513 -31.5625 92.375 C-32.2225 91.715 -32.8825 91.055 -33.5625 90.375 C-33.5625 86.60264397 -32.00934398 84.5188298 -29.75 81.6875 C-20.98105381 70.32581251 -20.66101715 56.75810661 -22.25 43 C-23.6397462 32.67901745 -26.97943489 23.45000985 -34.875 16.375 C-37.22280147 14.08709143 -37.53116063 13.68839373 -37.875 10.25 C-36.42647791 7.07704685 -35.07141018 5.77224018 -31.94433594 4.24389648 C-21.5711535 0.45974762 -10.93008738 -0.12083348 0 0 Z " fill="#F0A11A" transform="translate(743.5625,11.625)"/>
<path d="M0 0 C0.66 0 1.32 0 2 0 C2 29.04 2 58.08 2 88 C1.01 88.495 1.01 88.495 0 89 C-0.15357177 77.54356718 -0.30175354 66.08707874 -0.4429636 54.63048649 C-0.50869721 49.31131727 -0.57632064 43.99218579 -0.64819336 38.6730957 C-0.71742491 33.54441009 -0.78178337 28.41568479 -0.84269524 23.28689384 C-0.86685856 21.32556354 -0.89280822 19.36425444 -0.92053413 17.40297127 C-0.95892843 14.66589809 -0.99109521 11.92881984 -1.02172852 9.19165039 C-1.03467453 8.37238068 -1.04762054 7.55311096 -1.06095886 6.70901489 C-1.07901761 4.80598713 -1.04523572 2.90257576 -1 1 C-0.67 0.67 -0.34 0.34 0 0 Z " fill="#E99C16" transform="translate(658,147)"/>
<path d="M0 0 C1.32 0.33 2.64 0.66 4 1 C3.67 1.66 3.34 2.32 3 3 C2.87784515 5.5012233 2.81436719 7.97647987 2.79467773 10.47900391 C2.78477814 11.24982803 2.77487854 12.02065216 2.76467896 12.81483459 C2.7330317 15.3687124 2.70829383 17.92260882 2.68359375 20.4765625 C2.663027 22.24490855 2.64203061 24.01324965 2.62062073 25.78158569 C2.56537119 30.44059243 2.51597464 35.09964375 2.46777344 39.75872803 C2.41757944 44.51106747 2.36188242 49.26334202 2.30664062 54.015625 C2.19902381 63.34369459 2.09758667 72.67182047 2 82 C1.34 82 0.68 82 0 82 C0 54.94 0 27.88 0 0 Z " fill="#F5530D" transform="translate(188,155)"/>
<path d="M0 0 C0.33 0 0.66 0 1 0 C1.33 19.8 1.66 39.6 2 60 C0.515 60.495 0.515 60.495 -1 61 C-1.02312792 53.19424805 -1.04091738 45.38850405 -1.05181217 37.58272648 C-1.05704002 33.9585404 -1.06413587 30.3343777 -1.07543945 26.71020508 C-1.08627184 23.21540025 -1.09227758 19.72061796 -1.09487724 16.22579765 C-1.09763551 14.23760611 -1.10544688 12.24942369 -1.11329651 10.26124573 C-1.11337204 9.06007614 -1.11344757 7.85890656 -1.11352539 6.62133789 C-1.115746 5.55766495 -1.11796661 4.493992 -1.12025452 3.39808655 C-1 1 -1 1 0 0 Z M8 52 C8.66 52.33 9.32 52.66 10 53 C8.02 54.98 6.04 56.96 4 59 C3.34 58.67 2.68 58.34 2 58 C4 56 6 54 8 52 Z " fill="#F7820F" transform="translate(459,69)"/>
<path d="M0 0 C0.66 0.33 1.32 0.66 2 1 C0.02 2.98 -1.96 4.96 -4 7 C-4.66 6.67 -5.32 6.34 -6 6 C-4 4 -2 2 0 0 Z M-8 6 C-7.34 6.66 -6.68 7.32 -6 8 C-6.99 8 -7.98 8 -9 8 C-8.67 7.34 -8.34 6.68 -8 6 Z " fill="#E98F15" transform="translate(467,121)"/>
<path d="M0 0 C-0.33 0.99 -0.66 1.98 -1 3 C-4.3 3.66 -7.6 4.32 -11 5 C-11 4.34 -11 3.68 -11 3 C-9.54293274 2.49632243 -8.08429904 1.99717444 -6.625 1.5 C-5.81289063 1.2215625 -5.00078125 0.943125 -4.1640625 0.65625 C-2 0 -2 0 0 0 Z " fill="#EA8514" transform="translate(406,237)"/>
<path d="M0 0 C0.99 0.33 1.98 0.66 3 1 C2.01 2.485 2.01 2.485 1 4 C1 4.99 1 5.98 1 7 C0.01 6.01 -0.98 5.02 -2 4 C-1.34 2.68 -0.68 1.36 0 0 Z " fill="#E78714" transform="translate(757,140)"/>
</svg>
